<?xml version="1.0" encoding="utf-8"?>
<!-- Generator: Adobe Illustrator 27.2.0, SVG Export Plug-In . SVG Version: 6.00 Build 0)  -->
<svg version="1.1" id="Calque_2_00000017509326742944137140000011628358934589414790_"
	 xmlns="http://www.w3.org/2000/svg" xmlns:xlink="http://www.w3.org/1999/xlink" x="0px" y="0px" viewBox="0 0 450 450"
	 style="enable-background:new 0 0 450 450;" xml:space="preserve">
<style type="text/css">
	.st0{fill:#FFFFFF;}
	.st1{fill:#000041;}
	.st2{fill:#FF1D25;}
	.st3{fill:#FF931E;}
</style>
<g>
	<rect x="43" y="80.5" class="st0" width="376" height="322.4"/>
	<g id="Calque_1-2">
		<g>
			<path class="st1" d="M400,0H50C22.4,0,0,22.4,0,50v350c0,27.6,22.4,50,50,50h350c27.6,0,50-22.4,50-50V50C450,22.4,427.6,0,400,0
				z M265.9,259.9l-35.4,64.6l-35.4-64.6l-64.6-35.4l64.6-35.4l35.4-64.6l35.4,64.6l64.6,35.4L265.9,259.9z"/>
			<path class="st2" d="M70,125c1.1-65.7,98.9-65.7,100,0C168.9,190.7,71.1,190.7,70,125z"/>
			<g>
				<path class="st3" d="M281,125c1.1-65.7,98.9-65.7,100,0C379.9,190.7,282.1,190.7,281,125z"/>
				<path class="st0" d="M331,179.3c-72.9-0.2-72.8-108.4,0-108.6C403.9,70.9,403.8,179.1,331,179.3z M286,125
					c1.7,59.3,88.3,59.3,90,0C374.3,65.7,287.7,65.7,286,125z"/>
			</g>
			<path class="st3" d="M281,325c1.1-65.7,98.9-65.7,100,0C379.9,390.7,282.1,390.7,281,325z"/>
			<g>
				<path class="st2" d="M70,325c1.1-65.7,98.9-65.7,100,0C168.9,390.7,71.1,390.7,70,325z"/>
				<path class="st0" d="M120,379.3c-72.9-0.2-72.8-108.4,0-108.6C192.9,270.9,192.8,379.1,120,379.3L120,379.3z M75,325
					c1.7,59.3,88.3,59.3,90,0C163.3,265.7,76.7,265.7,75,325z"/>
			</g>
		</g>
	</g>
</g>
</svg>
